<svg height="512" viewBox="0 0 512 512" width="512" xmlns="http://www.w3.org/2000/svg" xmlns:xlink="http://www.w3.org/1999/xlink"><linearGradient id="a" gradientUnits="userSpaceOnUse" x1=".815" x2="509.109" y1="500.125" y2="-8.169" data-name="New Gradient Swatch 1"><stop offset="0" stop-color="#003f8a"/><stop offset=".518" stop-color="#00d7df"/><stop offset="1" stop-color="#006df0"/></linearGradient><linearGradient id="b" x1="6.345" x2="514.639" xlink:href="#a" y1="505.655" y2="-2.639"/><linearGradient id="c" x1="-75.655" x2="432.639" xlink:href="#a" y1="423.655" y2="-84.639"/><linearGradient id="d" x1="88.345" x2="596.639" xlink:href="#a" y1="587.655" y2="79.361"/><linearGradient id="i" x1="122.31" x2="630.604" xlink:href="#a" y1="621.621" y2="113.326"/><linearGradient id="j" x1="-109.621" x2="398.674" xlink:href="#a" y1="389.69" y2="-118.604"/><linearGradient id="k" x1="-5.413" x2="502.882" xlink:href="#a" y1="493.898" y2="-14.396"/><g><path d="m504 256a248 248 0 0 1 -423.36 175.36 248.045 248.045 0 0 1 -29-315.9 8 8 0 1 1 13.17 9.08 232.014 232.014 0 0 0 355.24 295.51 232.016 232.016 0 0 0 -293.12-356.86l12.66 15.06-54.98 9.75 19.04-52.49 12.93 15.38a248.01 248.01 0 0 1 387.42 205.11z" fill="url(#a)"/><path d="m256 456c110.28 0 200-89.72 200-200s-89.72-200-200-200-200 89.72-200 200 89.72 200 200 200zm0-384c101.458 0 184 82.542 184 184s-82.542 184-184 184-184-82.542-184-184 82.542-184 184-184z" fill="url(#b)"/><path d="m256 104a8 8 0 0 0 8-8v-8a8 8 0 0 0 -16 0v8a8 8 0 0 0 8 8z" fill="url(#c)"/><path d="m256 408a8 8 0 0 0 -8 8v8a8 8 0 0 0 16 0v-8a8 8 0 0 0 -8-8z" fill="url(#d)"/><path d="m416 264h8a8 8 0 0 0 0-16h-8a8 8 0 0 0 0 16z" fill="url(#d)"/><path d="m88 264h8a8 8 0 0 0 0-16h-8a8 8 0 0 0 0 16z" fill="url(#c)"/><path d="m369.137 150.863a7.974 7.974 0 0 0 5.656-2.343l5.657-5.657a8 8 0 1 0 -11.312-11.314l-5.658 5.657a8 8 0 0 0 5.657 13.657z" fill="url(#b)"/><path d="m137.206 382.794a7.974 7.974 0 0 0 5.657-2.343l5.658-5.657a8 8 0 1 0 -11.315-11.315l-5.657 5.658a8 8 0 0 0 5.657 13.657z" fill="url(#b)"/><path d="m374.794 363.479a8 8 0 1 0 -11.315 11.315l5.658 5.657a8 8 0 0 0 11.314-11.314z" fill="url(#i)"/><path d="m137.207 148.52a8 8 0 1 0 11.313-11.314l-5.658-5.657a8 8 0 1 0 -11.312 11.314z" fill="url(#j)"/><path d="m137.857 282.143 68.486 68.485a8 8 0 0 0 11.314 0l156.486-156.485a8 8 0 0 0 0-11.315l-16.971-16.971a8 8 0 0 0 -11.315 0l-133.857 133.859-45.857-45.859a8 8 0 0 0 -11.315 0l-16.971 16.971a8 8 0 0 0 0 11.315zm22.628-11.315 45.858 45.859a8 8 0 0 0 11.314 0l133.858-133.859 5.657 5.657-145.172 145.172-57.172-57.172z" fill="url(#k)"/></g></svg>